<svg xmlns="http://www.w3.org/2000/svg" width="49.307" height="50.996" viewBox="0 0 49.307 50.996">
  <g id="XMLID_1760_" transform="translate(1 1)">
    <path id="XMLID_1489_" d="M12.173,26H8.794c-.507,0-.845.338-.676.845a2.5,2.5,0,0,0,4.731,0C13.018,26.338,12.68,26,12.173,26Z" transform="translate(2.188 15.393)" fill="#bc8d22"/>
    <path id="XMLID_906_" d="M30.706,19.606A17.8,17.8,0,0,1,17.527,19.1L15.5,18.254v-2.7a5.2,5.2,0,0,1,3.041-4.731L22.258,9.3" transform="translate(7.309 3.878)" fill="none" stroke="#bc8d22" stroke-linecap="round" stroke-linejoin="round" stroke-miterlimit="10" stroke-width="2"/>
    <path id="XMLID_888_" d="M22.5,9.3l3.717,1.69a5.2,5.2,0,0,1,3.041,4.731v2.534" transform="translate(12.135 3.878)" fill="none" stroke="#bc8d22" stroke-linecap="round" stroke-linejoin="round" stroke-miterlimit="10" stroke-width="2"/>
    <path id="XMLID_887_" d="M25.258,14.678V11.637a4.41,4.41,0,0,0,1.69-3.379V5.724a4.224,4.224,0,1,0-8.448,0V8.258a4.41,4.41,0,0,0,1.69,3.379v3.041" transform="translate(9.377 -1.5)" fill="none" stroke="#bc8d22" stroke-linecap="round" stroke-linejoin="round" stroke-miterlimit="10" stroke-width="2"/>
    <path id="XMLID_866_" d="M18.5,5.5a4.171,4.171,0,0,0,3.379,4.055" transform="translate(9.377 1.258)" fill="none" stroke="#bc8d22" stroke-linecap="round" stroke-linejoin="round" stroke-miterlimit="10" stroke-width="2"/>
    <path id="XMLID_859_" d="M6.9,5h0" transform="translate(1.379 0.913)" fill="none" stroke="#bc8d22" stroke-linecap="round" stroke-linejoin="round" stroke-miterlimit="10" stroke-width="2"/>
    <path id="XMLID_850_" d="M30.327,30.516V26.292H26.1L32.016,17l5.913,9.292H33.706v4.224a9.375,9.375,0,0,1-9.292,9.292h0a9.459,9.459,0,0,1-5.913-2.2" transform="translate(9.377 9.188)" fill="none" stroke="#bc8d22" stroke-linecap="round" stroke-linejoin="round" stroke-miterlimit="10" stroke-width="2"/>
    <path id="XMLID_484_" d="M25.1,27.031h0" transform="translate(13.928 16.052)" fill="none" stroke="#bc8d22" stroke-linecap="round" stroke-linejoin="round" stroke-miterlimit="10" stroke-width="2"/>
    <path id="XMLID_661_" d="M9.6,10.792v4.224h4.224L7.913,24.309,2,15.016H6.224V10.792A9.375,9.375,0,0,1,15.516,1.5h0a9.459,9.459,0,0,1,5.913,2.2" transform="translate(-2 -1.5)" fill="none" stroke="#bc8d22" stroke-linecap="round" stroke-linejoin="round" stroke-miterlimit="10" stroke-width="2"/>
    <path id="XMLID_1490_" d="M20.4,36.4a3.389,3.389,0,0,0,3.379-3.379V22.879A3.389,3.389,0,0,0,20.4,19.5H6.879A3.389,3.389,0,0,0,3.5,22.879V33.016A3.389,3.389,0,0,0,6.879,36.4Z" transform="translate(-0.966 10.911)" fill="none" stroke="#bc8d22" stroke-linecap="round" stroke-linejoin="round" stroke-miterlimit="10" stroke-width="2"/>
    <line id="XMLID_1465_" y1="5.069" transform="translate(12.671 25.343)" fill="none" stroke="#bc8d22" stroke-linecap="round" stroke-linejoin="round" stroke-miterlimit="10" stroke-width="2"/>
    <circle id="XMLID_1892_" cx="0.507" cy="0.507" r="0.507" transform="translate(17.233 38.352)" fill="none" stroke="#bc8d22" stroke-miterlimit="10" stroke-width="2"/>
    <circle id="XMLID_1903_" cx="0.507" cy="0.507" r="0.507" transform="translate(7.096 38.352)" fill="none" stroke="#bc8d22" stroke-miterlimit="10" stroke-width="2"/>
  </g>
</svg>
