<svg id="Group_13" data-name="Group 13" xmlns="http://www.w3.org/2000/svg" width="50" height="50" viewBox="0 0 50 50">
  <g id="Group_15" data-name="Group 15">
    <path id="Path_59" data-name="Path 59" d="M34,16H16a7.008,7.008,0,0,0-7,7v3a1,1,0,0,0,2,0V23a5.006,5.006,0,0,1,5-5H34a5.006,5.006,0,0,1,5,5V33a5.006,5.006,0,0,1-5,5H16a5.006,5.006,0,0,1-5-5V30a1,1,0,0,0-2,0v3a7.008,7.008,0,0,0,7,7H34a7.008,7.008,0,0,0,7-7V23a7.008,7.008,0,0,0-7-7" fill="#bc8d22"/>
    <path id="Path_60" data-name="Path 60" d="M46,20H44.95A11.011,11.011,0,0,0,34,10H26.62l2.02-4.04A2.2,2.2,0,0,0,29,6a3,3,0,1,0-3-3,2.95,2.95,0,0,0,.85,2.08L25,8.77,23.15,5.08A2.95,2.95,0,0,0,24,3a3,3,0,1,0-3,3,2.2,2.2,0,0,0,.36-.04L23.38,10H16A11.011,11.011,0,0,0,5.05,20H4a4,4,0,0,0-4,4v6a4,4,0,0,0,4,4H5.05A11.013,11.013,0,0,0,15,43.95V49a1,1,0,0,0,1,1H34a1,1,0,0,0,1-1V43.95A11.013,11.013,0,0,0,44.95,34H46a4,4,0,0,0,4-4V24a4,4,0,0,0-4-4M29,2a1,1,0,1,1-1,1,1,1,0,0,1,1-1M21,4a1,1,0,1,1,1-1,1,1,0,0,1-1,1M5,32H4a2.006,2.006,0,0,1-2-2V24a2.006,2.006,0,0,1,2-2H5ZM33,48H17V44H33ZM43,33a9.014,9.014,0,0,1-9,9H16a9.014,9.014,0,0,1-9-9V21a9.014,9.014,0,0,1,9-9H34a9.014,9.014,0,0,1,9,9Zm5-3a2.006,2.006,0,0,1-2,2H45V22h1a2.006,2.006,0,0,1,2,2Z" fill="#bc8d22"/>
    <path id="Path_61" data-name="Path 61" d="M17,20a3,3,0,1,0,3,3,3,3,0,0,0-3-3m0,4a1,1,0,1,1,1-1,1,1,0,0,1-1,1" fill="#bc8d22"/>
    <path id="Path_62" data-name="Path 62" d="M36,23a3,3,0,1,0-3,3,3,3,0,0,0,3-3m-4,0a1,1,0,1,1,1,1,1,1,0,0,1-1-1" fill="#bc8d22"/>
    <path id="Path_63" data-name="Path 63" d="M16,29a7.008,7.008,0,0,0,7,7h4a7.008,7.008,0,0,0,7-7,1,1,0,0,0-1-1H17a1,1,0,0,0-1,1m15.9,1A5.009,5.009,0,0,1,27,34H23a5.01,5.01,0,0,1-4.9-4Z" fill="#bc8d22"/>
  </g>
</svg>
