<svg xmlns="http://www.w3.org/2000/svg" width="299.729" height="84.02" viewBox="0 0 299.729 84.02">
  <g id="Group_6" data-name="Group 6" transform="translate(0 -0.001)">
    <path id="Path_22" data-name="Path 22" d="M12.254,52.606H.6v-.971c3.213,0,4.109-2.841,4.109-7.921V7.249C4.707,2.69,3.213.972,0,.972V0H17.709V.972c-3.213,0-5.455,1.271-5.455,6.651Zm25.556,0H18.083V51.56c8.892-.225,17.784-2.092,18.83-15.17h.9Z" transform="translate(0 0)" fill="#bc8d22"/>
    <path id="Path_23" data-name="Path 23" d="M98.888,34.972h.972c.075,13.376-8.892,18.307-18.158,18.307-9.64,0-17.336-6.426-17.336-18.607V7.4c0-5.007-1.943-6.426-5.23-6.426V0H77.741V.972c-3.213,0-5.978.673-5.978,6.576V35.27c0,9.341,5.529,14.646,13.674,14.646,7.622,0,13.45-5.38,13.45-14.945M90.071,0h19.353V.972C99.635.9,99.86,7.548,99.86,14.646h-.972c0-7.1-.149-13.749-8.817-13.674Z" transform="translate(-15.423 0)" fill="#bc8d22"/>
    <path id="Path_24" data-name="Path 24" d="M151.851,51.635v.971H130.7v-.971c9.191,0,10.536-9.191,10.536-17.635h.971c0,8.668,1.27,17.635,9.639,17.635M147.816,0l19.876,43.415-3.661,9.863h-.971L141.166,5.755a9.15,9.15,0,0,0-8.22-4.783V0Zm47.972,51.634v.971H176.659v-.971c3.139,0,5.38-1.719,5.38-7.772V0h13.3V.972c-3.213,0-5.754,1.5-5.754,6.576V43.864c0,6.052,2.989,7.772,6.2,7.772" transform="translate(-34.089 0)" fill="#bc8d22"/>
    <path id="Path_25" data-name="Path 25" d="M244.188,0V.972c-3.214,0-5.231,1.271-5.231,5.9V44.612c0,5.081,2.093,7.024,5.231,7.024v.971H226.03v-.971c3.213,0,5.23-1.943,5.23-7.024V6.875c0-4.632-1.943-5.9-5.23-5.9V0Z" transform="translate(-58.952 0)" fill="#bc8d22"/>
    <path id="Path_26" data-name="Path 26" d="M270.28,0l33.252,42.891v9.714h-2.391L265.349,6.576C260.567.6,258.4,1.122,256.457.972V0Zm8.892,51.634v.971h-21.6v-.971c10.835,0,10.76-10.984,10.76-17.709h1.046c0,6.65,0,17.709,9.789,17.709M292.772,0h21.371V.972C303.309.9,303.533,11.658,303.533,18.607h-.971c0-6.949.075-17.709-9.789-17.635Z" transform="translate(-66.888 0)" fill="#bc8d22"/>
    <path id="Path_27" data-name="Path 27" d="M385.437,51.635v.971H368.4v-.971c4.035,0,3.288-4.26,1.5-8.444l-2.541-6.5H348c-2.093,5.978-5.305,15.243,5.082,14.946v.971H336.419v-.971c2.765-.075,4.558-.449,10.461-15.916h20.1L356.594,9.341,360.105,0h.747c9.192,21.969,18.457,45.582,18.457,45.582,2.466,5.977,4.035,5.9,6.127,6.052" transform="translate(-87.743 0)" fill="#bc8d22"/>
    <path id="Path_28" data-name="Path 28" d="M130.975,99.587V83.14c2.065,0,4.293-.023,6.358,0a5.449,5.449,0,1,1,0,10.886h-5.185v5.561Zm6.358-6.664a4.355,4.355,0,1,0,0-8.7h-5.185v8.7Z" transform="translate(-34.16 -21.682)" fill="#999fad"/>
    <path id="Path_29" data-name="Path 29" d="M155.53,101.484a5.853,5.853,0,1,1,5.888-5.841,5.677,5.677,0,0,1-5.888,5.841m.023-1.032a4.594,4.594,0,0,0,4.74-4.809,4.81,4.81,0,1,0-4.74,4.809" transform="translate(-39.004 -23.415)" fill="#999fad"/>
    <path id="Path_30" data-name="Path 30" d="M177.061,96.8V90.016h1.079V96.8a3.381,3.381,0,0,0,3.4,3.683c5.068,0,3.472-7.156,2.182-10.51H184.8c1.407,3.659,2.98,11.238-2.862,11.425a4.219,4.219,0,0,1-4.317-2.557,3.948,3.948,0,0,1-3.941,2.6c-2.628-.069-4.364-1.735-4.364-4.621V92.292c.024-1.127-.164-1.76-1.549-1.572v-.844c1.994-.353,2.675.375,2.675,2.37V96.8c0,2.322,1.314,3.683,3.307,3.683,2.089,0,3.309-1.526,3.309-3.683" transform="translate(-43.757 -23.419)" fill="#999fad"/>
    <path id="Path_31" data-name="Path 31" d="M205.93,100.726a9.637,9.637,0,0,1-3.847.775c-4.129,0-6.522-2.558-6.077-6.687a5.443,5.443,0,0,1,5.8-5.068c2.229,0,4.9,1.126,4.644,3.707-.187,2.323-2.557,3.144-4.55,3.144a8.113,8.113,0,0,1-4.857-1.36c-.305,3.237,1.713,5.208,5.091,5.208a9.456,9.456,0,0,0,3.8-.8Zm-4.176-5.162c1.478,0,3.425-.421,3.542-2.158.189-1.9-1.877-2.628-3.519-2.628-2.37-.024-4.13,1.126-4.6,3.449a7.371,7.371,0,0,0,4.575,1.336" transform="translate(-51.107 -23.407)" fill="#999fad"/>
    <path id="Path_32" data-name="Path 32" d="M218.659,89.776a5.191,5.191,0,0,1,2.886.891l-.4.985a4.349,4.349,0,0,0-2.581-.774A3.174,3.174,0,0,0,215.257,94v7.319H214.13v-8.7c0-1.1-.023-1.807-1.454-1.619l-.047-.962c1.807-.305,2.581.163,2.581,1.478a3.568,3.568,0,0,1,3.448-1.736" transform="translate(-55.457 -23.413)" fill="#999fad"/>
    <path id="Path_33" data-name="Path 33" d="M236.026,100.726a9.637,9.637,0,0,1-3.847.775c-4.129,0-6.522-2.558-6.077-6.687a5.443,5.443,0,0,1,5.8-5.068c2.229,0,4.9,1.126,4.644,3.707-.187,2.323-2.557,3.144-4.55,3.144a8.113,8.113,0,0,1-4.857-1.36c-.305,3.237,1.713,5.208,5.091,5.208a9.457,9.457,0,0,0,3.8-.8Zm-4.176-5.162c1.478,0,3.425-.421,3.542-2.158.188-1.9-1.876-2.628-3.519-2.628-2.37-.024-4.13,1.126-4.6,3.449a7.371,7.371,0,0,0,4.575,1.336" transform="translate(-58.957 -23.407)" fill="#999fad"/>
    <path id="Path_34" data-name="Path 34" d="M253.877,82.035c0,4.95-.024,9.6-.024,14.5,0,1.2-.024,1.924,1.455,1.736l.047,1.032c-1.853.282-2.463-.423-2.463-2.088V96.65a4.624,4.624,0,0,1-4.457,2.793c-3.4,0-5.139-2.745-5.139-5.913,0-3.19,1.666-6.006,5.115-6.006A4.514,4.514,0,0,1,252.8,90.1v-8.07Zm-5.256,16.352c2.628,0,4.153-2.041,4.153-4.856,0-2.674-1.29-5.021-4.153-5.021-2.909,0-4.2,2.323-4.2,5.021,0,2.628,1.455,4.856,4.2,4.856" transform="translate(-63.455 -21.396)" fill="#999fad"/>
    <path id="Path_35" data-name="Path 35" d="M271.679,82.383h1.055V90.57a4.545,4.545,0,0,1,4.317-2.7c2.722,0,5.279,1.924,5.162,5.983-.118,3.871-2.675,5.818-6.171,5.818a10.3,10.3,0,0,1-4.363-1.056Zm1.1,15.53a8.388,8.388,0,0,0,3.355.774,4.579,4.579,0,0,0,4.927-4.832c.07-3.379-1.736-5-4.2-5-2.769,0-4.083,2.651-4.083,5Z" transform="translate(-70.858 -21.487)" fill="#999fad"/>
    <path id="Path_36" data-name="Path 36" d="M290.573,105.344c3.309,1.9,8.54,1.759,8.54-3.238V98.892a4.423,4.423,0,0,1-4.27,2.768c-3.026,0-4.974-1.783-4.974-5.607V92.58c0-1.22-.094-1.853-1.619-1.6v-.891c2.088-.4,2.768.47,2.768,2.37v3.589c0,3.214,1.549,4.6,3.989,4.6,2.909,0,4.059-2.816,4.059-5.256V90.071h1.1v12.035c0,5.63-5.7,6.523-9.736,4.176Z" transform="translate(-75.18 -23.473)" fill="#999fad"/>
    <path id="Path_37" data-name="Path 37" d="M314.981,84.255V83.176h11.965v1.079h-5.4V99.6h-1.175V84.255Z" transform="translate(-82.152 -21.693)" fill="#999fad"/>
    <path id="Path_38" data-name="Path 38" d="M340.433,82.859c3.308,0,6.053,1.384,7.226,4.669h-1.2c-1.1-2.557-3.237-3.566-6.052-3.566-4.2.07-6.922,3.167-6.922,7.3,0,4.2,2.651,7.367,6.922,7.367a6.538,6.538,0,0,0,6.8-6.5h-6.477V91.094h7.649a10.265,10.265,0,0,1-.727,4.129,7.428,7.428,0,0,1-7.248,4.529c-4.763,0-8.095-3.543-8.095-8.493,0-4.9,3.448-8.4,8.118-8.4" transform="translate(-86.673 -21.611)" fill="#999fad"/>
    <path id="Path_39" data-name="Path 39" d="M365.391,99.766c-4.763,0-8.282-3.4-8.282-8.47a8.307,8.307,0,1,1,16.61,0c0,4.974-3.425,8.47-8.328,8.47m0-1.1a7.359,7.359,0,0,0,.023-14.711c-4.129,0-7.108,3-7.108,7.343s3,7.367,7.085,7.367" transform="translate(-93.139 -21.603)" fill="#999fad"/>
    <path id="Path_40" data-name="Path 40" d="M391.3,99.766c-4.763,0-8.282-3.4-8.282-8.47a8.307,8.307,0,1,1,16.61,0c0,4.974-3.424,8.47-8.328,8.47m0-1.1a7.359,7.359,0,0,0,.024-14.711c-4.128,0-7.109,3-7.109,7.343s3,7.367,7.085,7.367" transform="translate(-99.896 -21.603)" fill="#999fad"/>
  </g>
</svg>
