<svg xmlns="http://www.w3.org/2000/svg" width="51.207" height="52.414" viewBox="0 0 51.207 52.414">
  <g id="client_x2C__customer_x2C__profile_x2C__hand_x2C__personalized_1_" transform="translate(-0.086 -0.5)">
    <g id="XMLID_1498_" transform="translate(1.5 1.5)">
      <g id="XMLID_280_" transform="translate(0 27.87)">
        <path id="XMLID_3527_" d="M19.214,24.277H31.972c0-.862,0-5.172-6.034-5.172H19.559A10.177,10.177,0,0,0,7.145,20.657l-.345.517" transform="translate(2.338 -17.665)" fill="none" stroke="#bc8d22" stroke-linecap="round" stroke-linejoin="round" stroke-miterlimit="10" stroke-width="2"/>
        <path id="XMLID_3514_" d="M29.41,22.362l2.069-.345,4.828-2.586c4.138-1.9,7.414-1.207,7.759,2.414h0l-9.483,5.69-9.138,2.586A11.947,11.947,0,0,1,22,30.638H13.376a5.451,5.451,0,0,0-2.931,1.034l-.345.172" transform="translate(4.728 -17.129)" fill="none" stroke="#bc8d22" stroke-linecap="round" stroke-linejoin="round" stroke-miterlimit="10" stroke-width="2"/>
        <path id="XMLID_3259_" d="M1.5,26.59,7.017,20.9,18.052,31.934l-5.517,5.517" transform="translate(-1.5 -15.322)" fill="none" stroke="#bc8d22" stroke-linecap="round" stroke-linejoin="round" stroke-miterlimit="10" stroke-width="2"/>
      </g>
      <g id="XMLID_1223_" transform="translate(9.483 11.207)">
        <line id="XMLID_1229_" y2="0.862" transform="translate(2.586 4.31)" fill="none" stroke="#bc8d22" stroke-linecap="round" stroke-linejoin="round" stroke-miterlimit="10" stroke-width="2"/>
        <line id="XMLID_1228_" y2="0.862" transform="translate(2.586)" fill="none" stroke="#bc8d22" stroke-linecap="round" stroke-linejoin="round" stroke-miterlimit="10" stroke-width="2"/>
        <line id="XMLID_1227_" x1="0.862" transform="translate(0 2.586)" fill="none" stroke="#bc8d22" stroke-linecap="round" stroke-linejoin="round" stroke-miterlimit="10" stroke-width="2"/>
        <line id="XMLID_1225_" x1="0.862" transform="translate(4.31 2.586)" fill="none" stroke="#bc8d22" stroke-linecap="round" stroke-linejoin="round" stroke-miterlimit="10" stroke-width="2"/>
      </g>
      <g id="XMLID_1167_" transform="translate(1.724)">
        <line id="XMLID_1222_" y2="2" transform="translate(3.276 5)" fill="none" stroke="#bc8d22" stroke-linecap="round" stroke-linejoin="round" stroke-miterlimit="10" stroke-width="2"/>
        <line id="XMLID_1221_" y2="2" transform="translate(3.276 0)" fill="none" stroke="#bc8d22" stroke-linecap="round" stroke-linejoin="round" stroke-miterlimit="10" stroke-width="2"/>
        <line id="XMLID_1213_" x1="1" transform="translate(0.276 3)" fill="none" stroke="#bc8d22" stroke-linecap="round" stroke-linejoin="round" stroke-miterlimit="10" stroke-width="2"/>
        <line id="XMLID_1174_" x1="2" transform="translate(5.276 3)" fill="none" stroke="#bc8d22" stroke-linecap="round" stroke-linejoin="round" stroke-miterlimit="10" stroke-width="2"/>
      </g>
      <g id="XMLID_625_" transform="translate(20.69)">
        <g id="XMLID_692_" transform="translate(4.138 4.293)">
          <path id="XMLID_757_" d="M28.707,16.093a5.085,5.085,0,0,0-2.414-2.241L22.5,12.3" transform="translate(-11.121 1.148)" fill="none" stroke="#bc8d22" stroke-linecap="round" stroke-linejoin="round" stroke-miterlimit="10" stroke-width="2"/>
          <path id="XMLID_754_" d="M22.107,12.3l-3.793,1.724A5.085,5.085,0,0,0,15.9,16.266" transform="translate(-15.9 1.148)" fill="none" stroke="#bc8d22" stroke-linecap="round" stroke-linejoin="round" stroke-miterlimit="10" stroke-width="2"/>
          <path id="XMLID_744_" d="M20.224,17.948v-3.1A4.5,4.5,0,0,1,18.5,11.4V8.81a4.31,4.31,0,0,1,8.621,0V11.4A4.5,4.5,0,0,1,25.4,14.845v3.1" transform="translate(-14.017 -4.5)" fill="none" stroke="#bc8d22" stroke-linecap="round" stroke-linejoin="round" stroke-miterlimit="10" stroke-width="2"/>
          <path id="XMLID_695_" d="M24.948,8.5A4.256,4.256,0,0,1,21.5,12.638" transform="translate(-11.845 -1.603)" fill="none" stroke="#bc8d22" stroke-linecap="round" stroke-linejoin="round" stroke-miterlimit="10" stroke-width="2"/>
        </g>
        <circle id="XMLID_685_" cx="13" cy="13" r="13" transform="translate(0.31 0)" fill="none" stroke="#bc8d22" stroke-linecap="round" stroke-linejoin="round" stroke-miterlimit="10" stroke-width="2"/>
      </g>
    </g>
  </g>
</svg>
