<svg id="Group_11" data-name="Group 11" xmlns="http://www.w3.org/2000/svg" width="50" height="50" viewBox="0 0 50 50">
  <g id="Group_14" data-name="Group 14">
    <path id="Path_53" data-name="Path 53" d="M15.649,33.937a1,1,0,0,0,1.288-.585L17.443,32h3.114l.506,1.352a1.013,1.013,0,0,0,1.288.585,1,1,0,0,0,.586-1.288l-3-8a1,1,0,0,0-1.874,0l-3,8a1,1,0,0,0,.586,1.288M19,27.848,19.807,30H18.193Z" fill="#bc8d22"/>
    <path id="Path_54" data-name="Path 54" d="M26,34a1,1,0,0,0,1-1V25a1,1,0,0,0-2,0v8a1,1,0,0,0,1,1" fill="#bc8d22"/>
    <path id="Path_55" data-name="Path 55" d="M9,32a1,1,0,0,0-.832.445l-2,3a1,1,0,0,0,.277,1.387,1.018,1.018,0,0,0,1.387-.277L9.535,34H11v1a3,3,0,0,0,3,3h2v4a1,1,0,0,0,2,0V38h2v4a1,1,0,0,0,2,0V38h2v4a1,1,0,0,0,2,0V38h2a3,3,0,0,0,3-3V34h1.465l1.7,2.555a1.02,1.02,0,0,0,1.387.277,1,1,0,0,0,.277-1.387l-2-3A1,1,0,0,0,33,32H31V30h3a1,1,0,0,0,0-2H31V26h2a1,1,0,0,0,.832-.445l2-3a1,1,0,1,0-1.664-1.11L32.465,24H31V23a3,3,0,0,0-3-3H26V17a1,1,0,0,0-2,0v3H22V17a1,1,0,0,0-2,0v3H18V17a1,1,0,0,0-2,0v3H14a3,3,0,0,0-3,3v1H9.535l-1.7-2.555a1,1,0,1,0-1.664,1.11l2,3A1,1,0,0,0,9,26h2v2H8a1,1,0,0,0,0,2h3v2Zm4-9a1,1,0,0,1,1-1H28a1,1,0,0,1,1,1V35a1,1,0,0,1-1,1H14a1,1,0,0,1-1-1Z" fill="#bc8d22"/>
    <path id="Path_56" data-name="Path 56" d="M47,0H29a3,3,0,0,0-3,3V8.627A20.9,20.9,0,0,0,.662,23.751a1,1,0,1,0,1.936.5,19.006,19.006,0,1,1,7.763,20.493,1.007,1.007,0,0,0-.913-.108L2.911,47.089l2.455-6.537a1,1,0,0,0-.108-.913A18.876,18.876,0,0,1,2,29c0-.311.009-.629.028-.939A1,1,0,0,0,1.09,27a1.02,1.02,0,0,0-1.058.937C.01,28.289,0,28.65,0,29A20.879,20.879,0,0,0,3.315,40.326L.264,48.448a1,1,0,0,0,1.288,1.288l8.122-3.05A20.983,20.983,0,0,0,37.461,16H40.5l2.7,3.6a1.013,1.013,0,0,0,1,.38,1,1,0,0,0,.772-.738L45.781,16H47a3,3,0,0,0,3-3V3a3,3,0,0,0-3-3m1,13a1,1,0,0,1-1,1H45a1,1,0,0,0-.97.758l-.49,1.961L41.8,14.4A1,1,0,0,0,41,14H35.669A21.019,21.019,0,0,0,28,9.225V3a1,1,0,0,1,1-1H47a1,1,0,0,1,1,1Z" fill="#bc8d22"/>
    <path id="Path_57" data-name="Path 57" d="M45,5H31a1,1,0,0,0,0,2H45a1,1,0,0,0,0-2" fill="#bc8d22"/>
    <path id="Path_58" data-name="Path 58" d="M45,10H36a1,1,0,0,0,0,2h9a1,1,0,0,0,0-2" fill="#bc8d22"/>
  </g>
</svg>
